<svg viewBox="0 0 17 17" fill="none" xmlns="http://www.w3.org/2000/svg">
<path d="M4.74382 14.9912C6.31924 15.903 8.17248 16.2108 9.95803 15.8571C11.7436 15.5034 13.3396 14.5124 14.4484 13.0689C15.5573 11.6253 16.1033 9.82784 15.9847 8.01146C15.8662 6.19508 15.0911 4.48382 13.804 3.19671C12.5169 1.9096 10.8056 1.13451 8.98922 1.01594C7.17284 0.897369 5.37533 1.44341 3.93182 2.55227C2.48831 3.66113 1.49733 5.25711 1.14363 7.04266C0.78993 8.8282 1.09766 10.6814 2.00944 12.2569L1.0321 15.1748C0.995376 15.285 0.990047 15.4031 1.01671 15.5161C1.04337 15.6291 1.10097 15.7324 1.18306 15.8145C1.26514 15.8966 1.36847 15.9542 1.48145 15.9808C1.59443 16.0075 1.7126 16.0022 1.82273 15.9655L4.74382 14.9912Z" stroke="#767676" stroke-width="2" stroke-linecap="round" stroke-linejoin="round"/>
</svg>
