<svg preserveAspectRatio="none" width="100%" height="100%" overflow="visible" style="display: block;" viewBox="0 0 128 128" fill="none" xmlns="http://www.w3.org/2000/svg">
<g id="Union">
<path d="M36.1412 63.9998C36.1412 59.7028 39.6246 56.2194 43.9216 56.2194C48.2186 56.2194 51.702 59.7028 51.702 63.9998C51.702 68.2968 48.2186 71.7802 43.9216 71.7802C39.6246 71.7802 36.1412 68.2968 36.1412 63.9998Z" fill="var(--fill-0, #1F1F1F)"/>
<path d="M76.298 63.9998C76.298 59.7028 79.7814 56.2194 84.0784 56.2194C88.3754 56.2194 91.8588 59.7028 91.8588 63.9998C91.8588 68.2968 88.3754 71.7802 84.0784 71.7802C79.7814 71.7802 76.298 68.2968 76.298 63.9998Z" fill="var(--fill-0, #1F1F1F)"/>
<path fill-rule="evenodd" clip-rule="evenodd" d="M48.4084 89.2763L48.4126 89.2799L48.4392 89.3023C48.4754 89.3327 48.539 89.3855 48.6289 89.4573C48.8087 89.6013 49.0926 89.821 49.4712 90.0917C50.2307 90.6347 51.3581 91.3729 52.7803 92.1135C55.6482 93.6069 59.5615 95.0309 64 95.0309C68.4385 95.0309 72.3518 93.6069 75.2197 92.1135C76.6419 91.3729 77.7693 90.6347 78.5288 90.0917C78.9074 89.821 79.1913 89.6013 79.3711 89.4573C79.461 89.3855 79.5246 89.3327 79.5607 89.3023L79.5873 89.28L79.5916 89.2762C81.1535 87.9095 83.5279 88.0647 84.8986 89.6245C86.271 91.1863 86.1175 93.565 84.5557 94.9375L82.0706 92.1095C84.5557 94.9375 84.5515 94.9411 84.5515 94.9411L84.5467 94.9454L84.5349 94.9557L84.5027 94.9835L84.4044 95.0669C84.324 95.1345 84.2139 95.2254 84.0753 95.3363C83.7982 95.5581 83.4059 95.8607 82.9077 96.2168C81.9136 96.9275 80.485 97.8608 78.6973 98.7917C75.1454 100.641 70.0234 102.56 64 102.56C57.9766 102.56 52.8546 100.641 49.3027 98.7917C47.515 97.8608 46.0863 96.9275 45.0923 96.2168C44.5941 95.8606 44.2018 95.5581 43.9247 95.3363C43.7861 95.2254 43.676 95.1345 43.5956 95.0669L43.4973 94.9835L43.4651 94.9557L43.4533 94.9454L43.4463 94.9392C41.8845 93.5668 41.729 91.1863 43.1014 89.6245C44.4721 88.0647 46.8465 87.9095 48.4084 89.2763ZM45.9294 92.1095C43.4443 94.9375 43.4463 94.9392 43.4463 94.9392L45.9294 92.1095Z" fill="var(--fill-0, #1F1F1F)"/>
<path fill-rule="evenodd" clip-rule="evenodd" d="M30.1176 7.78037C30.1176 3.48339 33.601 0 37.898 0H90.102C94.399 0 97.8823 3.4834 97.8823 7.78037V24.094H104.157C117.325 24.094 128 34.769 128 47.9371V104.157C128 117.325 117.325 128 104.157 128H23.8431C10.6749 128 0 117.325 0 104.157V47.9371C0 34.769 10.6749 24.094 23.8431 24.094H30.1176V7.78037ZM37.6471 24.094H90.3529V7.78037C90.3529 7.64175 90.2406 7.52939 90.102 7.52939H37.898C37.7594 7.52939 37.6471 7.64176 37.6471 7.78037V24.094ZM23.8431 31.6234C14.8333 31.6234 7.52941 38.9273 7.52941 47.9371V104.157C7.52941 113.166 14.8333 120.47 23.8431 120.47H104.157C113.167 120.47 120.471 113.166 120.471 104.157V47.9371C120.471 38.9273 113.167 31.6234 104.157 31.6234H23.8431Z" fill="var(--fill-0, #1F1F1F)"/>
</g>
</svg>
