<svg preserveAspectRatio="none" width="100%" height="100%" overflow="visible" style="display: block;" viewBox="0 0 456 60" fill="none" xmlns="http://www.w3.org/2000/svg">
<path id="Union" fill-rule="evenodd" clip-rule="evenodd" d="M17.7647 0C15.7505 0 14.1176 1.63284 14.1176 3.64705V11.2941H11.1765C5.00388 11.2941 0 16.2979 0 22.4705V48.8234C0 54.996 5.00388 59.9998 11.1765 59.9998H48.8235C54.9961 59.9998 60 54.996 60 48.8234V22.4705C60 16.2979 54.9961 11.2941 48.8235 11.2941H45.8824V3.64705C45.8824 1.63284 44.2495 0 42.2353 0H17.7647ZM42.3529 11.2941H17.6471V3.64705C17.6471 3.58207 17.6997 3.5294 17.7647 3.5294H42.2353C42.3003 3.5294 42.3529 3.58207 42.3529 3.64705V11.2941ZM3.52941 22.4705C3.52941 18.2472 6.95312 14.8235 11.1765 14.8235H48.8235C53.0469 14.8235 56.4706 18.2472 56.4706 22.4705V48.8234C56.4706 53.0467 53.0469 56.4704 48.8235 56.4704H11.1765C6.95312 56.4704 3.52941 53.0467 3.52941 48.8234V22.4705ZM20.5882 26.3529C18.574 26.3529 16.9412 27.9857 16.9412 29.9999C16.9412 32.0141 18.574 33.647 20.5882 33.647C22.6025 33.647 24.2353 32.0141 24.2353 29.9999C24.2353 27.9857 22.6025 26.3529 20.5882 26.3529ZM39.4118 26.3529C37.3975 26.3529 35.7647 27.9857 35.7647 29.9999C35.7647 32.0141 37.3975 33.647 39.4118 33.647C41.426 33.647 43.0588 32.0141 43.0588 29.9999C43.0588 27.9857 41.426 26.3529 39.4118 26.3529ZM22.6914 41.8482L22.6934 41.85L22.7059 41.8605C22.7229 41.8747 22.7527 41.8994 22.7948 41.9331C22.8791 42.0006 23.0121 42.1036 23.1896 42.2305C23.5456 42.485 24.0741 42.831 24.7408 43.1782C26.0851 43.8783 27.9195 44.5458 30 44.5458C32.0805 44.5458 33.9149 43.8783 35.2592 43.1782C35.9259 42.831 36.4544 42.485 36.8104 42.2305C36.9878 42.1036 37.1209 42.0006 37.2052 41.9331C37.2473 41.8994 37.2771 41.8747 37.2941 41.8605L37.3066 41.85L37.3086 41.8482C38.0407 41.2076 39.1537 41.2803 39.7962 42.0115C40.4395 42.7436 40.3676 43.8586 39.6355 44.5019L38.4711 43.1769C39.6355 44.502 39.6335 44.5037 39.6335 44.5037L39.6313 44.5056L39.6257 44.5105L39.6106 44.5235L39.5646 44.5626C39.5269 44.5943 39.4753 44.6369 39.4103 44.6889C39.2804 44.7928 39.0965 44.9347 38.863 45.1016C38.397 45.4348 37.7274 45.8722 36.8894 46.3086C35.2244 47.1756 32.8235 48.0752 30 48.0752C27.1765 48.0752 24.7756 47.1756 23.1106 46.3086C22.2727 45.8722 21.603 45.4348 21.137 45.1016C20.9035 44.9347 20.7196 44.7928 20.5897 44.6889C20.5247 44.6369 20.4731 44.5943 20.4354 44.5626L20.3894 44.5235L20.3743 44.5105L20.3687 44.5056L20.3655 44.5028L21.5294 43.1763C20.3645 44.502 20.3655 44.5028 20.3655 44.5028C19.6333 43.8594 19.5605 42.7436 20.2038 42.0115C20.8463 41.2803 21.9593 41.2076 22.6914 41.8482ZM254.172 58.4128C256.202 59.4709 258.554 60 261.23 60C265.289 60 268.564 58.8038 271.055 56.4114C273.546 54.0191 274.792 50.7986 274.792 46.75C274.792 44.5416 274.376 42.6553 273.546 41.0911C272.762 39.4808 271.632 38.0316 270.156 36.7434C268.726 35.4092 266.581 33.6839 263.721 31.5676C261.138 29.6813 259.408 28.2091 258.531 27.1509C257.655 26.0928 257.217 24.8736 257.217 23.4934C257.217 22.0671 257.563 20.963 258.255 20.1809C258.947 19.3527 259.846 18.9387 260.953 18.9387C262.106 18.9387 263.029 19.3757 263.721 20.2499C264.459 21.078 264.828 22.2052 264.828 23.6314V25.4947C264.828 25.7247 264.897 25.9317 265.035 26.1158C265.22 26.2538 265.428 26.3228 265.658 26.3228H273.615C273.846 26.3228 274.031 26.2538 274.169 26.1158C274.353 25.9317 274.446 25.7247 274.446 25.4947V23.8384C274.446 19.8818 273.2 16.6843 270.709 14.2459C268.264 11.8076 265.012 10.5884 260.953 10.5884C256.94 10.5884 253.711 11.7616 251.266 14.1079C248.821 16.4543 247.599 19.5828 247.599 23.4934C247.599 25.9778 248.106 28.1631 249.121 30.0494C250.136 31.9357 251.358 33.5229 252.788 34.8111C254.218 36.0993 256.087 37.5715 258.393 39.2278C261.068 41.1601 262.867 42.6323 263.79 43.6445C264.713 44.6106 265.174 45.7838 265.174 47.164C265.174 48.4982 264.805 49.5794 264.067 50.4075C263.329 51.2356 262.406 51.6497 261.299 51.6497C260.192 51.6497 259.269 51.2126 258.531 50.3385C257.793 49.4644 257.424 48.3142 257.424 46.888V45.3697C257.424 45.1397 257.332 44.9557 257.147 44.8177C257.009 44.6336 256.825 44.5416 256.594 44.5416H248.637C248.406 44.5416 248.199 44.6336 248.014 44.8177C247.876 44.9557 247.806 45.1397 247.806 45.3697V47.3711C247.806 49.8554 248.36 52.0638 249.467 53.9961C250.574 55.8824 252.143 57.3546 254.172 58.4128ZM329.792 12.9347C327.808 11.6925 325.548 11.0714 323.011 11.0714H309.034C308.803 11.0714 308.596 11.1634 308.411 11.3474C308.273 11.4854 308.204 11.6695 308.204 11.8995V58.6197C308.204 58.8497 308.273 59.0568 308.411 59.2408C308.596 59.3788 308.803 59.4478 309.034 59.4478H317.13C317.36 59.4478 317.545 59.3788 317.683 59.2408C317.868 59.0568 317.96 58.8497 317.96 58.6197V40.2629C317.96 40.0328 318.075 39.9178 318.306 39.9178H323.495C327.232 39.9178 330.253 38.6296 332.56 36.0532C334.866 33.4768 336.019 30.0493 336.019 25.7706C336.019 22.9182 335.466 20.3878 334.359 18.1795C333.298 15.9251 331.775 14.1768 329.792 12.9347ZM324.879 30.6704C324.003 31.7746 322.827 32.3266 321.35 32.3266H318.306C318.075 32.3266 317.96 32.2116 317.96 31.9816V19.8357C317.96 19.6057 318.075 19.4907 318.306 19.4907H321.35C322.827 19.4907 324.003 20.0658 324.879 21.2159C325.802 22.3661 326.263 23.9534 326.263 25.9777C326.263 27.956 325.802 29.5202 324.879 30.6704ZM339.952 59.2409C340.137 59.379 340.344 59.448 340.575 59.448H364.377C364.608 59.448 364.792 59.379 364.931 59.2409C365.115 59.0569 365.208 58.8499 365.208 58.6198V51.9258C365.208 51.6958 365.115 51.5117 364.931 51.3737C364.792 51.1897 364.608 51.0977 364.377 51.0977H349.847C349.616 51.0977 349.501 50.9827 349.501 50.7526V11.9686C349.501 11.7386 349.409 11.5546 349.224 11.4166C349.086 11.2325 348.901 11.1405 348.671 11.1405H340.575C340.344 11.1405 340.137 11.2325 339.952 11.4166C339.814 11.5546 339.745 11.7386 339.745 11.9686V58.6198C339.745 58.8499 339.814 59.0569 339.952 59.2409ZM389.106 58.6889C389.152 59.1949 389.452 59.448 390.005 59.448H398.308C398.816 59.448 399.069 59.2409 399.069 58.8269L399 58.5508L388.898 11.8996C388.806 11.3936 388.506 11.1405 387.998 11.1405H378.657C378.15 11.1405 377.85 11.3936 377.758 11.8996L367.587 58.5508C367.448 59.1489 367.679 59.448 368.279 59.448H376.374C376.928 59.448 377.227 59.1949 377.274 58.6889L378.381 52.0638C378.381 51.8338 378.519 51.7188 378.796 51.7188H387.583C387.86 51.7188 387.998 51.8338 387.998 52.0638L389.106 58.6889ZM380.041 44.1966C379.857 44.1966 379.765 44.0816 379.765 43.8516L382.878 25.0117C382.924 24.8736 382.993 24.8046 383.086 24.8046C383.178 24.8046 383.247 24.8736 383.293 25.0117L386.545 43.8516C386.592 44.0816 386.499 44.1966 386.269 44.1966H380.041ZM425.697 11.4166C425.558 11.2325 425.374 11.1405 425.143 11.1405H397.743C397.512 11.1405 397.305 11.2325 397.12 11.4166C396.982 11.5546 396.913 11.7386 396.913 11.9686V18.6627C396.913 18.8927 396.982 19.0997 397.12 19.2838C397.305 19.4218 397.512 19.4908 397.743 19.4908H406.046C406.277 19.4908 406.392 19.6058 406.392 19.8359V58.6198C406.392 58.8499 406.461 59.0569 406.6 59.2409C406.784 59.379 406.992 59.448 407.222 59.448H415.318C415.548 59.448 415.733 59.379 415.871 59.2409C416.056 59.0569 416.148 58.8499 416.148 58.6198V19.8359C416.148 19.6058 416.263 19.4908 416.494 19.4908H425.143C425.374 19.4908 425.558 19.4218 425.697 19.2838C425.881 19.0997 425.974 18.8927 425.974 18.6627V11.9686C425.974 11.7386 425.881 11.5546 425.697 11.4166ZM455.365 18.6627C455.365 18.8927 455.272 19.0997 455.088 19.2838C454.95 19.4218 454.765 19.4908 454.534 19.4908H440.073C439.842 19.4908 439.727 19.6058 439.727 19.8359V30.7395C439.727 30.9696 439.842 31.0846 440.073 31.0846H448.376C448.607 31.0846 448.791 31.1766 448.93 31.3606C449.114 31.4987 449.207 31.6827 449.207 31.9127V38.6068C449.207 38.8368 449.114 39.0438 448.93 39.2278C448.791 39.3659 448.607 39.4349 448.376 39.4349H440.073C439.842 39.4349 439.727 39.5499 439.727 39.7799V50.7526C439.727 50.9827 439.842 51.0977 440.073 51.0977H454.534C454.765 51.0977 454.95 51.1897 455.088 51.3737C455.272 51.5117 455.365 51.6958 455.365 51.9258V58.6198C455.365 58.8499 455.272 59.0569 455.088 59.2409C454.95 59.379 454.765 59.448 454.534 59.448H430.801C430.571 59.448 430.363 59.379 430.179 59.2409C430.04 59.0569 429.971 58.8499 429.971 58.6198V11.9686C429.971 11.7386 430.04 11.5546 430.179 11.4166C430.363 11.2325 430.571 11.1405 430.801 11.1405H454.534C454.765 11.1405 454.95 11.2325 455.088 11.4166C455.272 11.5546 455.365 11.7386 455.365 11.9686V18.6627ZM303.743 19.2838C303.927 19.0997 304.019 18.8927 304.019 18.6627V11.9686C304.019 11.7386 303.927 11.5546 303.743 11.4166C303.604 11.2325 303.42 11.1405 303.189 11.1405H279.456C279.225 11.1405 279.018 11.2325 278.833 11.4166C278.695 11.5546 278.626 11.7386 278.626 11.9686V58.6198C278.626 58.8499 278.695 59.0569 278.833 59.2409C279.018 59.379 279.225 59.448 279.456 59.448H303.189C303.42 59.448 303.604 59.379 303.743 59.2409C303.927 59.0569 304.019 58.8499 304.019 58.6198V51.9258C304.019 51.6958 303.927 51.5117 303.743 51.3737C303.604 51.1897 303.42 51.0977 303.189 51.0977H288.728C288.497 51.0977 288.382 50.9827 288.382 50.7526V39.7799C288.382 39.5499 288.497 39.4349 288.728 39.4349H297.031C297.262 39.4349 297.446 39.3659 297.584 39.2278C297.769 39.0438 297.861 38.8368 297.861 38.6068V31.9127C297.861 31.6827 297.769 31.4987 297.584 31.3606C297.446 31.1766 297.262 31.0846 297.031 31.0846H288.728C288.497 31.0846 288.382 30.9696 288.382 30.7395V19.8359C288.382 19.6058 288.497 19.4908 288.728 19.4908H303.189C303.42 19.4908 303.604 19.4218 303.743 19.2838ZM238.187 59.448C237.633 59.448 237.333 59.1949 237.287 58.6889L236.18 52.0638C236.18 51.8338 236.042 51.7188 235.765 51.7188H226.977C226.701 51.7188 226.562 51.8338 226.562 52.0638L225.455 58.6889C225.409 59.1949 225.109 59.448 224.556 59.448H216.46C215.861 59.448 215.63 59.1489 215.768 58.5508L225.94 11.8996C226.032 11.3936 226.332 11.1405 226.839 11.1405H236.18C236.688 11.1405 236.987 11.3936 237.08 11.8996L247.182 58.5508L247.251 58.8269C247.251 59.2409 246.997 59.448 246.49 59.448H238.187ZM227.946 43.8516C227.946 44.0816 228.038 44.1966 228.223 44.1966H234.45C234.681 44.1966 234.773 44.0816 234.727 43.8516L231.475 25.0117C231.429 24.8736 231.36 24.8046 231.267 24.8046C231.175 24.8046 231.106 24.8736 231.06 25.0117L227.946 43.8516ZM215.201 46.1289C215.201 50.4076 213.91 53.6971 211.326 55.9974C208.743 58.2978 205.399 59.448 201.293 59.448H188.216C187.985 59.448 187.778 59.379 187.593 59.2409C187.455 59.0569 187.386 58.8499 187.386 58.6198V11.9686C187.386 11.7386 187.455 11.5546 187.593 11.4166C187.778 11.2325 187.985 11.1405 188.216 11.1405H199.771C204.384 11.1405 207.982 12.2447 210.565 14.453C213.195 16.6614 214.509 19.9509 214.509 24.3216C214.509 28.8763 212.941 32.1888 209.804 34.2591C209.62 34.3971 209.597 34.5351 209.735 34.6731C213.379 37.2495 215.201 41.0681 215.201 46.1289ZM197.488 19.4908C197.257 19.4908 197.142 19.6058 197.142 19.8359V30.6705C197.142 30.9006 197.257 31.0156 197.488 31.0156H199.979C201.547 31.0156 202.77 30.5325 203.646 29.5664C204.522 28.5542 204.961 27.151 204.961 25.3567C204.961 23.4704 204.522 22.0212 203.646 21.009C202.816 19.9969 201.593 19.4908 199.979 19.4908H197.488ZM200.532 51.0287C202.055 51.0287 203.254 50.4766 204.13 49.3724C205.007 48.2682 205.445 46.704 205.445 44.6797C205.445 42.6554 205.007 41.0451 204.13 39.8489C203.254 38.6528 202.078 38.0547 200.602 38.0547H197.488C197.257 38.0547 197.142 38.1697 197.142 38.3997V50.6836C197.142 50.9137 197.257 51.0287 197.488 51.0287H200.532ZM169.125 14.7291C169.125 15.1891 168.895 15.4192 168.433 15.4192H152.381C152.196 15.4192 152.104 15.5112 152.104 15.6952V32.8099C152.104 32.9939 152.196 33.0859 152.381 33.0859H162.483C162.944 33.0859 163.175 33.3159 163.175 33.776V36.7435C163.175 37.2035 162.944 37.4336 162.483 37.4336H152.381C152.196 37.4336 152.104 37.5256 152.104 37.7096V54.8933C152.104 55.0773 152.196 55.1693 152.381 55.1693H168.433C168.895 55.1693 169.125 55.3993 169.125 55.8594V58.7579C169.125 59.2179 168.895 59.448 168.433 59.448H147.883C147.422 59.448 147.191 59.2179 147.191 58.7579V11.8306C147.191 11.3705 147.422 11.1405 147.883 11.1405H168.433C168.895 11.1405 169.125 11.3705 169.125 11.8306V14.7291ZM133.502 11.8306C133.502 11.3705 133.732 11.1405 134.194 11.1405H137.723C138.184 11.1405 138.414 11.3705 138.414 11.8306V58.7579C138.414 59.2179 138.184 59.448 137.723 59.448H134.194C133.732 59.448 133.502 59.2179 133.502 58.7579V37.7096C133.502 37.5256 133.41 37.4336 133.225 37.4336H120.909C120.724 37.4336 120.632 37.5256 120.632 37.7096V58.7579C120.632 59.2179 120.401 59.448 119.94 59.448H116.411C115.95 59.448 115.719 59.2179 115.719 58.7579V11.8306C115.719 11.3705 115.95 11.1405 116.411 11.1405H119.94C120.401 11.1405 120.632 11.3705 120.632 11.8306V32.8099C120.632 32.9939 120.724 33.0859 120.909 33.0859H133.225C133.41 33.0859 133.502 32.9939 133.502 32.8099V11.8306ZM108.395 11.1405C108.856 11.1405 109.087 11.3705 109.087 11.8306V14.7291C109.087 15.1891 108.856 15.4192 108.395 15.4192H99.2617C99.0772 15.4192 98.9849 15.5112 98.9849 15.6952V58.7579C98.9849 59.2179 98.7543 59.448 98.293 59.448H94.7641C94.3029 59.448 94.0722 59.2179 94.0722 58.7579V15.6952C94.0722 15.5112 93.9799 15.4192 93.7954 15.4192H85.2155C84.7543 15.4192 84.5236 15.1891 84.5236 14.7291V11.8306C84.5236 11.3705 84.7543 11.1405 85.2155 11.1405H108.395Z" fill="var(--fill-0, #1F1F1F)"/>
</svg>
