<svg width="128" height="128" viewBox="0 0 128 128" fill="none" xmlns="http://www.w3.org/2000/svg">
<path fill-rule="evenodd" clip-rule="evenodd" d="M33.3145 13.0845C33.3145 9.19285 36.4693 6.03809 40.3609 6.03809H87.6399C91.5316 6.03809 94.6863 9.19286 94.6863 13.0845V27.8591H100.369C112.295 27.8591 121.963 37.5269 121.963 49.4528V100.369C121.963 112.294 112.295 121.962 100.369 121.962H27.632C15.706 121.962 6.03818 112.294 6.03818 100.369V49.4528C6.03818 37.5269 15.706 27.8591 27.632 27.8591H33.3145V13.0845Z" fill="#FFCF00"/>
<path fill-rule="evenodd" clip-rule="evenodd" d="M27.2764 13.0841C27.2764 5.85794 33.1343 0 40.3605 0H87.6395C94.8657 0 100.724 5.85795 100.724 13.0841V21.8233C115.82 22.0134 128 34.3106 128 49.4525V100.368C128 115.629 115.629 128 100.368 128H27.6315C12.3711 128 0 115.629 0 100.368V49.4525C0 34.3106 12.1796 22.0134 27.2764 21.8233V13.0841ZM40.3605 6.03774C36.4689 6.03774 33.3141 9.1925 33.3141 13.0841V27.8588H27.6315C15.7056 27.8588 6.03774 37.5266 6.03774 49.4525V100.368C6.03774 112.294 15.7056 121.962 27.6315 121.962H100.368C112.294 121.962 121.962 112.294 121.962 100.368V49.4525C121.962 37.5266 112.294 27.8588 100.368 27.8588H94.6859V13.0841C94.6859 9.19251 91.5311 6.03774 87.6395 6.03774H40.3605Z" fill="#FFCF00"/>
<path fill-rule="evenodd" clip-rule="evenodd" d="M33.3145 13.0845C33.3145 9.19285 36.4693 6.03809 40.3609 6.03809H87.6399C91.5316 6.03809 94.6863 9.19286 94.6863 13.0845V27.8591H100.369C112.295 27.8591 121.963 37.5269 121.963 49.4528V100.369C121.963 112.294 112.295 121.962 100.369 121.962H27.632C15.706 121.962 6.03818 112.294 6.03818 100.369V49.4528C6.03818 37.5269 15.706 27.8591 27.632 27.8591H33.3145V13.0845ZM40.1336 27.8591H87.8672V13.0845C87.8672 12.9589 87.7655 12.8572 87.6399 12.8572H40.3609C40.2354 12.8572 40.1336 12.9589 40.1336 13.0845V27.8591ZM27.632 34.6782C19.4721 34.6782 12.8573 41.293 12.8573 49.4528V100.369C12.8573 108.528 19.4721 115.143 27.632 115.143H100.369C108.529 115.143 115.144 108.528 115.144 100.369V49.4528C115.144 41.293 108.529 34.6782 100.369 34.6782H27.632Z" fill="#1F1F1F"/>
<path d="M78.4913 86.9443H49.5101C46.8425 86.9443 44.7353 89.1632 45.7703 91.6219C47.5528 95.8564 52.2494 101.435 64.6239 101.435C76.2101 101.435 80.6167 95.8708 82.2927 91.6383C83.2749 89.1581 81.1589 86.9443 78.4913 86.9443Z" fill="#1F1F1F"/>
<path d="M47.0938 89.3574H80.9051V92.9801H47.0938V89.3574Z" fill="white"/>
<path fill-rule="evenodd" clip-rule="evenodd" d="M78.4913 89.3594H49.5101C48.8248 89.3594 48.3278 89.647 48.0939 89.9229C47.9838 90.0528 47.9392 90.1674 47.9241 90.2566C47.9105 90.3373 47.9071 90.4732 47.9962 90.6849C48.7364 92.4432 50.0761 94.4802 52.5464 96.0947C55.0205 97.7117 58.8048 99.0198 64.6239 99.0198C70.0193 99.0198 73.5125 97.7298 75.7952 96.1414C78.0837 94.549 79.3439 92.5254 80.0473 90.7492C80.1332 90.5323 80.1298 90.3871 80.1127 90.2938C80.0941 90.1923 80.0428 90.0682 79.9265 89.9324C79.6812 89.646 79.1763 89.3594 78.4913 89.3594ZM49.5101 86.9443H78.4913C81.1589 86.9443 83.2749 89.1581 82.2927 91.6383C80.6167 95.8708 76.2101 101.435 64.6239 101.435C52.2494 101.435 47.5528 95.8564 45.7703 91.6219C44.7353 89.1632 46.8425 86.9443 49.5101 86.9443Z" fill="#1F1F1F"/>
<path d="M46.909 48.9737L50.1438 56.6827C50.2221 56.8698 50.35 57.032 50.5137 57.1517C50.6774 57.2715 50.8706 57.3443 51.0726 57.3623L59.3526 58.0781C59.5723 58.0957 59.7818 58.1781 59.9547 58.3149C60.1275 58.4517 60.2559 58.6366 60.3236 58.8464C60.3913 59.0562 60.3952 59.2813 60.3349 59.4933C60.2746 59.7053 60.1528 59.8946 59.9848 60.0373L53.7031 65.517C53.5504 65.6511 53.4369 65.8241 53.3747 66.0175C53.3124 66.211 53.3037 66.4177 53.3494 66.6157L55.2321 74.7676C55.2819 74.9805 55.2679 75.2033 55.1919 75.4083C55.1159 75.6133 54.9812 75.7915 54.8047 75.9205C54.6281 76.0495 54.4176 76.1237 54.1991 76.1339C53.9807 76.1441 53.7642 76.0897 53.5764 75.9777L46.4606 71.6608C46.2877 71.5557 46.0892 71.5001 45.8868 71.5001C45.6845 71.5001 45.486 71.5557 45.3131 71.6608L38.1973 75.9777C38.0095 76.0897 37.7929 76.1441 37.5745 76.1339C37.3561 76.1237 37.1455 76.0495 36.969 75.9205C36.7925 75.7915 36.6578 75.6133 36.5818 75.4083C36.5058 75.2033 36.4918 74.9805 36.5415 74.7676L38.4243 66.6157C38.47 66.4177 38.4613 66.211 38.399 66.0175C38.3367 65.8241 38.2232 65.6511 38.0705 65.517L31.7888 60.0373C31.6209 59.8946 31.4991 59.7053 31.4388 59.4933C31.3785 59.2813 31.3824 59.0562 31.4501 58.8464C31.5178 58.6366 31.6462 58.4517 31.819 58.3149C31.9918 58.1781 32.2013 58.0957 32.421 58.0781L40.701 57.3623C40.9031 57.3443 41.0963 57.2715 41.26 57.1517C41.4237 57.032 41.5516 56.8698 41.6299 56.6827L44.8647 48.9737C44.9511 48.7744 45.0939 48.6047 45.2755 48.4855C45.4571 48.3662 45.6696 48.3027 45.8868 48.3027C46.1041 48.3027 46.3166 48.3662 46.4982 48.4855C46.6798 48.6047 46.8226 48.7744 46.909 48.9737Z" fill="#1F1F1F"/>
<path d="M83.1359 48.9737L86.3708 56.6827C86.4491 56.8698 86.577 57.032 86.7407 57.1517C86.9043 57.2715 87.0976 57.3443 87.2996 57.3623L95.5796 58.0781C95.7993 58.0957 96.0088 58.1781 96.1817 58.3149C96.3545 58.4517 96.4829 58.6366 96.5506 58.8464C96.6182 59.0562 96.6222 59.2813 96.5619 59.4933C96.5016 59.7053 96.3798 59.8946 96.2118 60.0373L89.9301 65.517C89.7774 65.6511 89.6639 65.8241 89.6016 66.0175C89.5394 66.211 89.5306 66.4177 89.5764 66.6157L91.4591 74.7676C91.5089 74.9805 91.4949 75.2033 91.4189 75.4083C91.3428 75.6133 91.2082 75.7915 91.0317 75.9205C90.8551 76.0495 90.6445 76.1237 90.4261 76.1339C90.2077 76.1441 89.9911 76.0897 89.8034 75.9777L82.6875 71.6608C82.5146 71.5557 82.3162 71.5001 82.1138 71.5001C81.9115 71.5001 81.713 71.5557 81.5401 71.6608L74.4243 75.9777C74.2365 76.0897 74.0199 76.1441 73.8015 76.1339C73.5831 76.1237 73.3725 76.0495 73.196 75.9205C73.0195 75.7915 72.8848 75.6133 72.8088 75.4083C72.7328 75.2033 72.7188 74.9805 72.7685 74.7676L74.6512 66.6157C74.697 66.4177 74.6883 66.211 74.626 66.0175C74.5637 65.8241 74.4502 65.6511 74.2975 65.517L68.0158 60.0373C67.8479 59.8946 67.7261 59.7053 67.6658 59.4933C67.6055 59.2813 67.6094 59.0562 67.6771 58.8464C67.7448 58.6366 67.8731 58.4517 68.046 58.3149C68.2188 58.1781 68.4283 58.0957 68.648 58.0781L76.928 57.3623C77.13 57.3443 77.3233 57.2715 77.487 57.1517C77.6507 57.032 77.7786 56.8698 77.8569 56.6827L81.0917 48.9737C81.1781 48.7744 81.3209 48.6047 81.5025 48.4855C81.6841 48.3662 81.8966 48.3027 82.1138 48.3027C82.3311 48.3027 82.5436 48.3662 82.7252 48.4855C82.9068 48.6047 83.0495 48.7744 83.1359 48.9737Z" fill="#1F1F1F"/>
</svg>
